<mxfile host="app.diagrams.net" modified="2022-07-07T20:45:03.790Z" agent="5.0 (Macintosh; Intel Mac OS X 10_14_6) AppleWebKit/537.36 (KHTML, like Gecko) Chrome/103.0.0.0 Safari/537.36" etag="w8F2T7KgtBA7cdNr3THw" version="20.0.4" type="github">
  <diagram id="sKOXEcCy8EMqs_lArJ1n" name="Page-1">
    <mxGraphModel dx="988" dy="478" grid="1" gridSize="10" guides="1" tooltips="1" connect="1" arrows="1" fold="1" page="1" pageScale="1" pageWidth="827" pageHeight="1169" math="0" shadow="0">
      <root>
        <mxCell id="0" />
        <mxCell id="1" parent="0" />
        <mxCell id="C8wSqRybFLgtsbrYx_Tw-18" value="" style="whiteSpace=wrap;html=1;aspect=fixed;fontSize=11;" vertex="1" parent="1">
          <mxGeometry x="240.5" y="40" width="370" height="370" as="geometry" />
        </mxCell>
        <mxCell id="C8wSqRybFLgtsbrYx_Tw-3" value="" style="edgeStyle=orthogonalEdgeStyle;rounded=0;orthogonalLoop=1;jettySize=auto;html=1;" edge="1" parent="1" source="C8wSqRybFLgtsbrYx_Tw-1" target="C8wSqRybFLgtsbrYx_Tw-2">
          <mxGeometry relative="1" as="geometry" />
        </mxCell>
        <mxCell id="C8wSqRybFLgtsbrYx_Tw-14" style="edgeStyle=orthogonalEdgeStyle;rounded=0;orthogonalLoop=1;jettySize=auto;html=1;exitX=1;exitY=0.3333333333333333;exitDx=0;exitDy=0;exitPerimeter=0;fontSize=11;" edge="1" parent="1" source="C8wSqRybFLgtsbrYx_Tw-1" target="C8wSqRybFLgtsbrYx_Tw-8">
          <mxGeometry relative="1" as="geometry">
            <Array as="points">
              <mxPoint x="100" y="90" />
            </Array>
          </mxGeometry>
        </mxCell>
        <mxCell id="C8wSqRybFLgtsbrYx_Tw-15" style="edgeStyle=orthogonalEdgeStyle;rounded=0;orthogonalLoop=1;jettySize=auto;html=1;exitX=1;exitY=1;exitDx=0;exitDy=0;exitPerimeter=0;entryX=0;entryY=0.5;entryDx=0;entryDy=0;fontSize=11;" edge="1" parent="1" source="C8wSqRybFLgtsbrYx_Tw-1" target="C8wSqRybFLgtsbrYx_Tw-10">
          <mxGeometry relative="1" as="geometry">
            <Array as="points">
              <mxPoint x="100" y="130" />
              <mxPoint x="351" y="130" />
            </Array>
          </mxGeometry>
        </mxCell>
        <mxCell id="C8wSqRybFLgtsbrYx_Tw-16" style="edgeStyle=orthogonalEdgeStyle;rounded=0;orthogonalLoop=1;jettySize=auto;html=1;exitX=0.5;exitY=0.5;exitDx=0;exitDy=0;exitPerimeter=0;entryX=0;entryY=0.5;entryDx=0;entryDy=0;fontSize=11;" edge="1" parent="1" source="C8wSqRybFLgtsbrYx_Tw-1" target="C8wSqRybFLgtsbrYx_Tw-11">
          <mxGeometry relative="1" as="geometry">
            <Array as="points">
              <mxPoint x="85" y="200" />
              <mxPoint x="226" y="200" />
              <mxPoint x="226" y="240" />
            </Array>
          </mxGeometry>
        </mxCell>
        <mxCell id="C8wSqRybFLgtsbrYx_Tw-1" value="Employé" style="shape=umlActor;verticalLabelPosition=bottom;verticalAlign=top;html=1;outlineConnect=0;" vertex="1" parent="1">
          <mxGeometry x="70" y="20" width="30" height="60" as="geometry" />
        </mxCell>
        <mxCell id="C8wSqRybFLgtsbrYx_Tw-17" style="edgeStyle=orthogonalEdgeStyle;rounded=0;orthogonalLoop=1;jettySize=auto;html=1;exitX=1;exitY=0.3333333333333333;exitDx=0;exitDy=0;exitPerimeter=0;entryX=0.011;entryY=0.643;entryDx=0;entryDy=0;entryPerimeter=0;fontSize=11;" edge="1" parent="1" source="C8wSqRybFLgtsbrYx_Tw-2" target="C8wSqRybFLgtsbrYx_Tw-12">
          <mxGeometry relative="1" as="geometry" />
        </mxCell>
        <mxCell id="C8wSqRybFLgtsbrYx_Tw-2" value="Chef employé" style="shape=umlActor;verticalLabelPosition=bottom;verticalAlign=top;html=1;outlineConnect=0;" vertex="1" parent="1">
          <mxGeometry x="70" y="340" width="30" height="60" as="geometry" />
        </mxCell>
        <mxCell id="C8wSqRybFLgtsbrYx_Tw-8" value="&lt;span style=&quot;text-align: start; line-height: 17.12px; font-family: &amp;quot;Times New Roman&amp;quot;, serif; color: rgb(51, 51, 51);&quot; lang=&quot;FR&quot;&gt;&lt;font style=&quot;font-size: 12px;&quot;&gt;saisir caractéristiques article pour déchargement&lt;/font&gt;&lt;/span&gt;&lt;span style=&quot;font-size: medium; text-align: start;&quot;&gt;&lt;/span&gt;" style="ellipse;whiteSpace=wrap;html=1;" vertex="1" parent="1">
          <mxGeometry x="351" y="60" width="149" height="60" as="geometry" />
        </mxCell>
        <mxCell id="C8wSqRybFLgtsbrYx_Tw-9" value="&lt;font style=&quot;font-size: 18px;&quot;&gt;Système&lt;/font&gt;" style="text;html=1;strokeColor=none;fillColor=none;align=center;verticalAlign=middle;whiteSpace=wrap;rounded=0;fontSize=12;" vertex="1" parent="1">
          <mxGeometry x="389" y="6" width="60" height="30" as="geometry" />
        </mxCell>
        <mxCell id="C8wSqRybFLgtsbrYx_Tw-10" value="&lt;span style=&quot;text-align: start; line-height: 17.12px; font-family: &amp;quot;Times New Roman&amp;quot;, serif; color: rgb(51, 51, 51);&quot; lang=&quot;FR&quot;&gt;&lt;font style=&quot;font-size: 12px;&quot;&gt;saisir caractéristiques article pour chargement&lt;/font&gt;&lt;/span&gt;&lt;span style=&quot;font-size: medium; text-align: start;&quot;&gt;&lt;/span&gt;" style="ellipse;whiteSpace=wrap;html=1;" vertex="1" parent="1">
          <mxGeometry x="351" y="130" width="136" height="60" as="geometry" />
        </mxCell>
        <mxCell id="C8wSqRybFLgtsbrYx_Tw-11" value="&lt;div style=&quot;text-align: start;&quot;&gt;&lt;span style=&quot;background-color: initial;&quot;&gt;&lt;font face=&quot;Times New Roman, serif&quot; color=&quot;#333333&quot;&gt;libérer des emplacements&amp;nbsp;&lt;/font&gt;&lt;/span&gt;&lt;/div&gt;" style="ellipse;whiteSpace=wrap;html=1;" vertex="1" parent="1">
          <mxGeometry x="351" y="210" width="136" height="60" as="geometry" />
        </mxCell>
        <mxCell id="C8wSqRybFLgtsbrYx_Tw-12" value="&lt;div style=&quot;&quot;&gt;&lt;font style=&quot;font-size: 11px;&quot;&gt;superviser la bonne application des consignes&lt;/font&gt;&lt;/div&gt;" style="ellipse;whiteSpace=wrap;html=1;align=center;" vertex="1" parent="1">
          <mxGeometry x="344.5" y="310" width="149" height="70" as="geometry" />
        </mxCell>
      </root>
    </mxGraphModel>
  </diagram>
</mxfile>
